<svg xmlns="http://www.w3.org/2000/svg" xmlns:xlink="http://www.w3.org/1999/xlink" contentStyleType="text/css" height="458px" preserveAspectRatio="none" style="width:1167px;height:458px;" version="1.1" viewBox="0 0 1167 458" width="1167px" zoomAndPan="magnify"><title>SageCLI &#8212; Message Lifecycle</title><defs/><g><text fill="#000000" font-family="Helvetica" font-size="22" font-weight="bold" lengthAdjust="spacing" textLength="362.1406" x="398.3016" y="35.4209">SageCLI &#8212; Message Lifecycle</text><!--cluster cli--><g id="cluster_cli"><path d="M314.2893,68.6094 L507.4826,68.6094 A3.75,3.75 0 0 1 509.9826,71.1094 L516.9826,88.5781 L521.2693,88.5781 A2.5,2.5 0 0 1 523.7693,91.0781 L523.7693,148.1094 A2.5,2.5 0 0 1 521.2693,150.6094 L314.2893,150.6094 A2.5,2.5 0 0 1 311.7893,148.1094 L311.7893,71.1094 A2.5,2.5 0 0 1 314.2893,68.6094 " fill="#FFFFFF" style="stroke:#000000;stroke-width:1.0;"/><line style="stroke:#000000;stroke-width:1.0;" x1="311.7893" x2="516.9826" y1="88.5781" y2="88.5781"/><text fill="#000000" font-family="Helvetica" font-size="12" font-weight="bold" lengthAdjust="spacing" textLength="192.1934" x="315.7893" y="81.748">sage CLI (single bash script)</text></g><!--cluster agent--><g id="cluster_agent"><path d="M692.2693,57.6094 L850.9685,57.6094 A3.75,3.75 0 0 1 853.4685,60.1094 L860.4685,77.5781 L860.2693,77.5781 A2.5,2.5 0 0 1 862.7693,80.0781 L862.7693,329.1094 A2.5,2.5 0 0 1 860.2693,331.6094 L692.2693,331.6094 A2.5,2.5 0 0 1 689.7693,329.1094 L689.7693,60.1094 A2.5,2.5 0 0 1 692.2693,57.6094 " fill="#FFFFFF" style="stroke:#000000;stroke-width:1.0;"/><line style="stroke:#000000;stroke-width:1.0;" x1="689.7693" x2="860.4685" y1="77.5781" y2="77.5781"/><text fill="#000000" font-family="Helvetica" font-size="12" font-weight="bold" lengthAdjust="spacing" textLength="157.6992" x="693.7693" y="70.748">/.sage/agents/&lt;name&gt;/</text></g><!--cluster rt--><g id="cluster_rt"><path d="M343.1693,265.6094 L434.1458,265.6094 A3.75,3.75 0 0 1 436.6458,268.1094 L443.6458,285.5781 L492.3793,285.5781 A2.5,2.5 0 0 1 494.8793,288.0781 L494.8793,449.1094 A2.5,2.5 0 0 1 492.3793,451.6094 L343.1693,451.6094 A2.5,2.5 0 0 1 340.6693,449.1094 L340.6693,268.1094 A2.5,2.5 0 0 1 343.1693,265.6094 " fill="#FFFFFF" style="stroke:#000000;stroke-width:1.0;"/><line style="stroke:#000000;stroke-width:1.0;" x1="340.6693" x2="443.6458" y1="285.5781" y2="285.5781"/><text fill="#000000" font-family="Helvetica" font-size="12" font-weight="bold" lengthAdjust="spacing" textLength="89.9766" x="344.6693" y="278.748">runtime shim</text></g><!--entity send--><g id="elem_send"><rect fill="#FFFFFF" height="33.9688" rx="2.5" ry="2.5" style="stroke:#000000;stroke-width:1.0;" width="179.9785" x="327.7893" y="100.6294"/><text fill="#000000" font-family="Helvetica" font-size="12" lengthAdjust="spacing" textLength="159.9785" x="337.7893" y="121.768">sage send &lt;agent&gt; "task"</text></g><!--entity inbox--><g id="elem_inbox"><path d="M743.2693,89.6294 L784.2693,89.6294 A3.75,3.75 0 0 1 786.7693,92.1294 L793.7693,110.6294 L808.2693,110.6294 A2.5,2.5 0 0 1 810.7693,113.1294 L810.7693,139.0981 A2.5,2.5 0 0 1 808.2693,141.5981 L743.2693,141.5981 A2.5,2.5 0 0 1 740.7693,139.0981 L740.7693,92.1294 A2.5,2.5 0 0 1 743.2693,89.6294 " fill="#FFFFFF" style="stroke:#000000;stroke-width:1.0;"/><line style="stroke:#000000;stroke-width:1.0;" x1="740.7693" x2="793.7693" y1="110.6294" y2="110.6294"/><text fill="#000000" font-family="Helvetica" font-size="12" lengthAdjust="spacing" textLength="37.043" x="750.7693" y="128.768">inbox/</text></g><!--entity ws--><g id="elem_ws"><path d="M729.1193,263.6294 L770.1193,263.6294 A3.75,3.75 0 0 1 772.6193,266.1294 L779.6193,284.6294 L822.4044,284.6294 A2.5,2.5 0 0 1 824.9044,287.1294 L824.9044,313.0981 A2.5,2.5 0 0 1 822.4044,315.5981 L729.1193,315.5981 A2.5,2.5 0 0 1 726.6193,313.0981 L726.6193,266.1294 A2.5,2.5 0 0 1 729.1193,263.6294 " fill="#FFFFFF" style="stroke:#000000;stroke-width:1.0;"/><line style="stroke:#000000;stroke-width:1.0;" x1="726.6193" x2="779.6193" y1="284.6294" y2="284.6294"/><text fill="#000000" font-family="Helvetica" font-size="12" lengthAdjust="spacing" textLength="68.2852" x="736.6193" y="302.768">workspace/</text></g><!--entity results--><g id="elem_results"><path d="M741.0093,176.6294 L782.0093,176.6294 A3.75,3.75 0 0 1 784.5093,179.1294 L791.5093,197.6294 L810.5171,197.6294 A2.5,2.5 0 0 1 813.0171,200.1294 L813.0171,226.0981 A2.5,2.5 0 0 1 810.5171,228.5981 L741.0093,228.5981 A2.5,2.5 0 0 1 738.5093,226.0981 L738.5093,179.1294 A2.5,2.5 0 0 1 741.0093,176.6294 " fill="#FFFFFF" style="stroke:#000000;stroke-width:1.0;"/><line style="stroke:#000000;stroke-width:1.0;" x1="738.5093" x2="791.5093" y1="197.6294" y2="197.6294"/><text fill="#000000" font-family="Helvetica" font-size="12" lengthAdjust="spacing" textLength="44.5078" x="748.5093" y="215.768">results/</text></g><!--entity runtime_start--><g id="elem_runtime_start"><rect fill="#FFFFFF" height="33.9688" rx="2.5" ry="2.5" style="stroke:#000000;stroke-width:1.0;" width="101.2051" x="367.1693" y="393.6294"/><text fill="#000000" font-family="Helvetica" font-size="12" lengthAdjust="spacing" textLength="81.2051" x="377.1693" y="414.768">runtime_start</text></g><!--entity runtime_inject--><g id="elem_runtime_inject"><rect fill="#FFFFFF" height="33.9688" rx="2.5" ry="2.5" style="stroke:#000000;stroke-width:1.0;" width="106.2148" x="364.6693" y="324.6294"/><text fill="#000000" font-family="Helvetica" font-size="12" lengthAdjust="spacing" textLength="86.2148" x="374.6693" y="345.768">runtime_inject</text></g><!--entity User--><g id="elem_User"><ellipse cx="93.8993" cy="147.1294" fill="#FFFFFF" rx="8" ry="8" style="stroke:#000000;stroke-width:1.0;"/><path d="M93.8993,155.1294 L93.8993,182.1294 M80.8993,163.1294 L106.8993,163.1294 M93.8993,182.1294 L80.8993,197.1294 M93.8993,182.1294 L106.8993,197.1294 " fill="none" style="stroke:#000000;stroke-width:1.0;"/><text fill="#000000" font-family="Helvetica" font-size="12" lengthAdjust="spacing" textLength="27.3516" x="80.2235" y="210.268">User</text></g><!--entity runner--><g id="elem_runner"><rect fill="#FFFFFF" height="47.9375" rx="2.5" ry="2.5" style="stroke:#000000;stroke-width:1.0;" width="189.9746" x="971.7693" y="312.6394"/><text fill="#000000" font-family="Helvetica" font-size="12" lengthAdjust="spacing" textLength="57.7383" x="981.7693" y="333.778">runner.sh</text><text fill="#000000" font-family="Helvetica" font-size="12" lengthAdjust="spacing" textLength="169.9746" x="981.7693" y="347.7468">(tmux window, polls 300ms)</text></g><!--entity llm--><g id="elem_llm"><path d="M20.1768,279.6611 C23.1264,273.584 28.1515,273.9755 32.0343,278.63 C35.0808,272.2321 39.2066,272.5174 43.7348,277.0429 C47.2251,272.1228 53.0968,271.2152 56.1289,277.5477 C60.8973,271.1842 65.2905,271.2053 70.074,277.5311 C73.447,272.22 78.7203,273.4117 81.4924,278.2098 C83.5148,271.218 89.7743,270.5057 94.1152,275.8346 C98.1499,269.2778 104.5213,269.3438 107.7316,276.6447 C111.3786,271.3497 116.5885,271.0056 119.8259,277.0804 C123.4972,272.1952 129.1949,272.6737 131.9208,278.1807 C135.6313,271.0218 141.2041,271.8106 145.2149,277.8788 C150.0795,272.3569 154.2226,271.1395 158.9267,278.0557 C162.289,271.9721 167.733,273.2312 170.6785,278.4877 C178.1418,281.0644 179.822,287.2896 175.0637,293.4486 C182.0604,296.313 182.068,300.3489 177.695,305.6627 C184.4822,311.481 184.5818,318.1193 175.3559,321.585 C180.9189,327.7096 177.8115,332.0493 171.2414,334.224 C167.9489,340.6647 163.3735,341.2748 158.132,336.5027 C154.283,342.4231 149.7837,341.7931 146.6471,335.815 C142.7243,342.0592 137.7099,343.5371 132.8132,336.8574 C130.2098,342.9501 124.5879,343.5279 121.2458,337.5664 C118.1192,343.8661 113.2067,345.3968 108.5254,339.1416 C104.4548,345.6548 98.5757,346.7588 93.915,339.7808 C89.6107,345.0186 85.6762,343.5564 83.0989,338.0434 C78.9435,343.4982 74.4945,344.315 70.3384,338.0442 C65.4097,344.0587 61.1445,344.2554 56.6657,337.5602 C52.7859,341.9208 48.0699,341.4234 45.162,336.3723 C40.2346,341.834 36.098,342.7596 31.6557,335.843 C26.8036,341.3163 22.3572,340.3938 18.769,334.4201 C11.4293,330.401 11.5906,324.7802 18.3108,320.3046 C12.723,316.9111 12.7772,310.65 18.1378,307.113 C11,302.5615 11.7683,296.0383 18.4294,291.7487 C13.9701,288.0099 13.5258,281.7939 20.1768,279.6611 " fill="#FFFFFF" style="stroke:#000000;stroke-width:1.0;"/><text fill="#000000" font-family="Helvetica" font-size="12" lengthAdjust="spacing" textLength="78.6621" x="25.0093" y="295.798">LLM backend</text><text fill="#000000" font-family="Helvetica" font-size="12" lengthAdjust="spacing" textLength="137.7773" x="25.0093" y="309.7668">(claude-code | ollama |</text><text fill="#000000" font-family="Helvetica" font-size="12" lengthAdjust="spacing" textLength="116.4727" x="25.0093" y="323.7355">gemini | codex | ...)</text></g><!--link User to send--><g id="link_User_send"><path d="M108.3193,173.1894 C145.1393,166.5594 244.2544,148.6933 321.5644,134.7633 " fill="none" id="User-to-send" style="stroke:#000000;stroke-width:1.0;"/><polygon fill="#000000" points="327.4693,133.6994,317.9026,131.3587,322.5485,134.586,319.3212,139.2319,327.4693,133.6994" style="stroke:#000000;stroke-width:1.0;"/><text fill="#000000" font-family="Helvetica" font-size="12" lengthAdjust="spacing" textLength="85.0488" x="209.2893" y="136.848">review this PR</text></g><!--link send to inbox--><g id="link_send_inbox"><path d="M508.1493,117.1094 C583.5293,116.6794 681.3794,116.1333 734.4794,115.8333 " fill="none" id="send-to-inbox" style="stroke:#000000;stroke-width:1.0;"/><polygon fill="#000000" points="740.4793,115.7994,731.4568,111.8503,735.4794,115.8276,731.502,119.8502,740.4793,115.7994" style="stroke:#000000;stroke-width:1.0;"/><text fill="#000000" font-family="Helvetica" font-size="12" lengthAdjust="spacing" textLength="92.9355" x="549.7693" y="113.448">write JSON msg</text></g><!--link inbox to runner--><g id="link_inbox_runner"><path d="M811.1293,128.7594 C829.5293,136.5194 852.1693,147.2294 870.7693,159.6094 C940.0293,205.7294 1005.2576,271.3503 1039.5576,307.9703 " fill="none" id="inbox-to-runner" style="stroke:#000000;stroke-width:1.0;"/><polygon fill="#000000" points="1043.6593,312.3494,1040.4262,303.0463,1040.2412,308.7001,1034.5874,308.5152,1043.6593,312.3494" style="stroke:#000000;stroke-width:1.0;"/><text fill="#000000" font-family="Helvetica" font-size="12" lengthAdjust="spacing" textLength="39.7207" x="901.7693" y="181.868">pickup</text></g><!--link runner to rt--><g id="link_runner_rt"><path d="M971.5693,342.4194 C939.5893,344.1294 903.6293,345.7694 870.7693,346.6094 C786.7893,348.7594 765.1193,356.9994 681.7693,346.6094 C613.5193,338.0994 599.0693,322.7694 531.7693,308.6094 C525.6368,307.3194 519.3027,306.0592 512.9095,304.8411 C509.7129,304.232 506.5016,303.6335 503.2932,303.047 C501.6891,302.7537 500.0856,302.4634 498.4852,302.1764 C497.685,302.0329 496.8855,301.8901 496.0871,301.7482 C495.6878,301.6773 501.1971,302.6519 500.7984,302.5813 " fill="none" id="runner-to-rt" style="stroke:#000000;stroke-width:1.0;"/><polygon fill="#000000" points="494.8902,301.536,503.0557,307.0428,499.8137,302.4071,504.4494,299.1652,494.8902,301.536" style="stroke:#000000;stroke-width:1.0;"/><text fill="#000000" font-family="Helvetica" font-size="12" lengthAdjust="spacing" textLength="173.291" x="689.2693" y="343.748">source runtimes/&lt;name&gt;.sh</text></g><!--link rt to llm--><g id="link_rt_llm"><path d="M340.4592,291.5768 C340.267,291.6237 340.0748,291.671 339.8828,291.7188 C339.1146,291.9099 338.3477,292.108 337.5826,292.3134 C325.3405,295.6 313.5443,300.7444 303.7893,308.6094 C296.3293,314.6194 303.7093,323.2394 295.7893,328.6094 C263.3993,350.5394 246.6993,332.5294 207.7893,328.6094 C198.1393,327.6394 194.0055,327.2083 184.0555,325.5283 " fill="none" id="rt-to-llm" style="stroke:#000000;stroke-width:1.0;"/><polygon fill="#000000" points="178.1393,324.5294,186.3477,329.9719,183.0695,325.3618,187.6796,322.0836,178.1393,324.5294" style="stroke:#000000;stroke-width:1.0;"/><text fill="#000000" font-family="Helvetica" font-size="12" lengthAdjust="spacing" textLength="80.6777" x="211.7893" y="325.748">inject prompt</text></g><!--link llm to rt--><g id="link_llm_rt"><path d="M178.2093,301.4694 C225.1493,299.1344 283.6743,296.2244 331.0093,293.8719 C333.9677,293.7248 330.8898,293.8778 333.7553,293.7354 " fill="none" id="llm-to-rt" style="stroke:#000000;stroke-width:1.0;"/><polygon fill="#000000" points="339.7479,293.4376,330.5605,289.8892,334.7541,293.6858,330.9575,297.8794,339.7479,293.4376" style="stroke:#000000;stroke-width:1.0;"/><text fill="#000000" font-family="Helvetica" font-size="12" lengthAdjust="spacing" textLength="86.3672" x="208.7893" y="292.848">stream tokens</text></g><!--link rt to results--><g id="link_rt_results"><path d="M495.3098,290.8705 C510.2916,287.2092 529.4296,262.5634 546.443,258.4056 C614.4968,241.7744 687.4158,223.9539 732.3808,212.9639 " fill="none" id="rt-to-results" style="stroke:#000000;stroke-width:1.0;"/><polygon fill="#000000" points="738.2093,211.5394,728.5169,209.7906,733.3523,212.7265,730.4163,217.5618,738.2093,211.5394" style="stroke:#000000;stroke-width:1.0;"/><text fill="#000000" font-family="Helvetica" font-size="12" lengthAdjust="spacing" textLength="110.8711" x="540.7693" y="230.368">task.json + output</text></g><!--link rt to ws--><g id="link_rt_ws"><path d="M495.2148,289.6094 C496.1015,289.6094 496.9933,289.6094 497.8901,289.6094 C499.6835,289.6094 501.4965,289.6094 503.328,289.6094 C506.9909,289.6094 510.7275,289.6094 514.5282,289.6094 C522.1296,289.6094 529.9876,289.6094 538.0255,289.6094 C602.3293,289.6094 672.1543,289.6094 720.3393,289.6094 " fill="none" id="rt-to-ws" style="stroke:#000000;stroke-width:1.0;"/><polygon fill="#000000" points="726.3393,289.6094,717.3393,285.6094,721.3393,289.6094,717.3393,293.6094,726.3393,289.6094" style="stroke:#000000;stroke-width:1.0;"/><text fill="#000000" font-family="Helvetica" font-size="12" lengthAdjust="spacing" textLength="87.8086" x="552.2693" y="286.748">files / commits</text></g><!--link results to User--><g id="link_results_User"><path d="M738.2293,201.1594 C610.6693,196.0894 194.5246,179.5674 114.1646,176.3774 " fill="none" id="results-to-User" style="stroke:#000000;stroke-width:1.0;"/><polygon fill="#000000" points="108.1693,176.1394,117.0035,180.4932,113.1654,176.3377,117.3209,172.4995,108.1693,176.1394" style="stroke:#000000;stroke-width:1.0;"/><text fill="#000000" font-family="Helvetica" font-size="12" lengthAdjust="spacing" textLength="72.4043" x="381.7793" y="181.398">sage ls / tail</text></g><!--SRC=[RLF1RjH03BtFLvYSYc2p1Mwesaib16XR42jExGfD9qxYxcGc6ZlT5WhY8_X2lWHFiWivSChCUyyUsyzv8Yrs2Bst50plAFGssGughEtWvKqCSccLBzwYlqCXPul_gpRq5U75ond9hQtYda83jVMCCyR5hey1DKWUF4929pOqVYwviMxNf3Y4wZpwc42I3QoK1XcFjO14IDIq0XNbU8h1627HT1lRuFdw7Vp- -Gika5cliAOQtOFJ9unrela-CoPZUdqbqyKeoa4dJBaIVPzRO9UebwS5M0Rd2RuPWAjHoXWgEDDJa1KKOdbNRBCgu-RxBF6FPPa3bgEKbsT1XxbQZXb7QCnPHrzXWeB2JRoVoF4ue_OnxRH_XnEzvncNaDK4dfZ39HVnTymg6KB0L79x7Kwa6-v1VL5pdaCVlMTuTNhQyTJdf9nre82GRW2tr4sAgUYh0_65nIRPpX4Ajsh9Tgp1nw62Ohs-62tLyMW5pjkXmeMB5S8ZQ0Msi_1u7HhiA912cRdNRrcMKrNUTyPaps2nM4tJVvqRloFSWxJ4yF6JBcR6is2SdYhsYGJX_UR39NJSc0dEWgbBLVJaTaDl3lUH4eKv3iaX71ew-gRpCqfdbHQaigbHw9DEMlTIiNyP9A7kiKJjcOzH1tEKpYjJtd8Cy0pY8FqWHyq-qpLvP5ZcFwKZTVCOc0NZ6FI1x8xF8h7apHy0]--></g></svg>