<svg xmlns="http://www.w3.org/2000/svg" xmlns:xlink="http://www.w3.org/1999/xlink" contentStyleType="text/css" height="678px" preserveAspectRatio="none" style="width:826px;height:678px;background:#FFFFFF;" version="1.1" viewBox="0 0 826 678" width="826px" zoomAndPan="magnify"><title>Plan Orchestrator &#8212; Dependency Waves with Parallel Execution</title><defs/><g><text fill="#000000" font-family="Helvetica" font-size="22" font-weight="bold" lengthAdjust="spacing" textLength="793.375" x="15.0337" y="35.4209">Plan Orchestrator &#8212; Dependency Waves with Parallel Execution</text><rect fill="#F0F8FF" height="619.4375" style="stroke:#000000;stroke-width:1.0;" width="81.334" x="378.7725" y="52.6094"/><text fill="#000000" font-family="Helvetica" font-size="12" font-weight="bold" lengthAdjust="spacing" textLength="49.8223" x="394.5283" y="63.748">Wave 1</text><rect fill="#F0FFF0" height="619.4375" style="stroke:#000000;stroke-width:1.0;" width="164.668" x="472.1064" y="52.6094"/><text fill="#000000" font-family="Helvetica" font-size="12" font-weight="bold" lengthAdjust="spacing" textLength="116.1504" x="496.3652" y="63.748">Wave 2 (parallel)</text><rect fill="#FFF8F0" height="619.4375" style="stroke:#000000;stroke-width:1.0;" width="164.668" x="648.7744" y="52.6094"/><text fill="#000000" font-family="Helvetica" font-size="12" font-weight="bold" lengthAdjust="spacing" textLength="116.1504" x="673.0332" y="63.748">Wave 3 (parallel)</text><line style="stroke:#000000;stroke-width:1.0;" x1="26" x2="26" y1="126.5781" y2="594.0781"/><line style="stroke:#000000;stroke-width:1.0;" x1="185.7686" x2="185.7686" y1="126.5781" y2="594.0781"/><line style="stroke:#000000;stroke-width:1.0;" x1="308.4619" x2="308.4619" y1="126.5781" y2="594.0781"/><line style="stroke:#000000;stroke-width:1.0;" x1="418.7725" x2="418.7725" y1="126.5781" y2="594.0781"/><line style="stroke:#000000;stroke-width:1.0;" x1="512.1064" x2="512.1064" y1="126.5781" y2="594.0781"/><line style="stroke:#000000;stroke-width:1.0;" x1="595.4404" x2="595.4404" y1="126.5781" y2="594.0781"/><line style="stroke:#000000;stroke-width:1.0;" x1="688.7744" x2="688.7744" y1="126.5781" y2="594.0781"/><line style="stroke:#000000;stroke-width:1.0;" x1="772.1084" x2="772.1084" y1="126.5781" y2="594.0781"/><text fill="#000000" font-family="Helvetica" font-size="12" lengthAdjust="spacing" textLength="27.3516" x="10" y="123.748">User</text><ellipse cx="26.6758" cy="60.6094" fill="#FFFFFF" rx="8" ry="8" style="stroke:#000000;stroke-width:1.0;"/><path d="M26.6758,68.6094 L26.6758,95.6094 M13.6758,76.6094 L39.6758,76.6094 M26.6758,95.6094 L13.6758,110.6094 M26.6758,95.6094 L39.6758,110.6094 " fill="none" style="stroke:#000000;stroke-width:1.0;"/><text fill="#000000" font-family="Helvetica" font-size="12" lengthAdjust="spacing" textLength="27.3516" x="10" y="604.2168">User</text><ellipse cx="26.6758" cy="616.0469" fill="#FFFFFF" rx="8" ry="8" style="stroke:#000000;stroke-width:1.0;"/><path d="M26.6758,624.0469 L26.6758,651.0469 M13.6758,632.0469 L39.6758,632.0469 M26.6758,651.0469 L13.6758,666.0469 M26.6758,651.0469 L39.6758,666.0469 " fill="none" style="stroke:#000000;stroke-width:1.0;"/><rect fill="#FFFFFF" height="27.9688" rx="2.5" ry="2.5" style="stroke:#000000;stroke-width:1.0;" width="72.3301" x="149.7686" y="97.6094"/><text fill="#000000" font-family="Helvetica" font-size="12" lengthAdjust="spacing" textLength="58.3301" x="156.7686" y="115.748">sage plan</text><rect fill="#FFFFFF" height="27.9688" rx="2.5" ry="2.5" style="stroke:#000000;stroke-width:1.0;" width="72.3301" x="149.7686" y="593.0781"/><text fill="#000000" font-family="Helvetica" font-size="12" lengthAdjust="spacing" textLength="58.3301" x="156.7686" y="611.2168">sage plan</text><rect fill="#FFFFFF" height="27.9688" rx="2.5" ry="2.5" style="stroke:#000000;stroke-width:1.0;" width="98.3105" x="259.4619" y="97.6094"/><text fill="#000000" font-family="Helvetica" font-size="12" lengthAdjust="spacing" textLength="84.3105" x="266.4619" y="115.748">planner agent</text><rect fill="#FFFFFF" height="27.9688" rx="2.5" ry="2.5" style="stroke:#000000;stroke-width:1.0;" width="98.3105" x="259.4619" y="593.0781"/><text fill="#000000" font-family="Helvetica" font-size="12" lengthAdjust="spacing" textLength="84.3105" x="266.4619" y="611.2168">planner agent</text><rect fill="#FFFFFF" height="41.9375" rx="2.5" ry="2.5" style="stroke:#000000;stroke-width:1.0;" width="53.334" x="392.7725" y="83.6406"/><text fill="#000000" font-family="Helvetica" font-size="12" lengthAdjust="spacing" textLength="39.334" x="399.7725" y="101.7793">Task 1</text><text fill="#000000" font-family="Helvetica" font-size="12" lengthAdjust="spacing" textLength="27.8496" x="405.5146" y="115.748">spec</text><rect fill="#FFFFFF" height="41.9375" rx="2.5" ry="2.5" style="stroke:#000000;stroke-width:1.0;" width="53.334" x="392.7725" y="593.0781"/><text fill="#000000" font-family="Helvetica" font-size="12" lengthAdjust="spacing" textLength="39.334" x="399.7725" y="611.2168">Task 1</text><text fill="#000000" font-family="Helvetica" font-size="12" lengthAdjust="spacing" textLength="27.8496" x="405.5146" y="625.1855">spec</text><rect fill="#FFFFFF" height="41.9375" rx="2.5" ry="2.5" style="stroke:#000000;stroke-width:1.0;" width="53.334" x="486.1064" y="83.6406"/><text fill="#000000" font-family="Helvetica" font-size="12" lengthAdjust="spacing" textLength="39.334" x="493.1064" y="101.7793">Task 2</text><text fill="#000000" font-family="Helvetica" font-size="12" lengthAdjust="spacing" textLength="27.2695" x="499.1387" y="115.748">auth</text><rect fill="#FFFFFF" height="41.9375" rx="2.5" ry="2.5" style="stroke:#000000;stroke-width:1.0;" width="53.334" x="486.1064" y="593.0781"/><text fill="#000000" font-family="Helvetica" font-size="12" lengthAdjust="spacing" textLength="39.334" x="493.1064" y="611.2168">Task 2</text><text fill="#000000" font-family="Helvetica" font-size="12" lengthAdjust="spacing" textLength="27.2695" x="499.1387" y="625.1855">auth</text><rect fill="#FFFFFF" height="41.9375" rx="2.5" ry="2.5" style="stroke:#000000;stroke-width:1.0;" width="53.334" x="569.4404" y="83.6406"/><text fill="#000000" font-family="Helvetica" font-size="12" lengthAdjust="spacing" textLength="39.334" x="576.4404" y="101.7793">Task 3</text><text fill="#000000" font-family="Helvetica" font-size="12" lengthAdjust="spacing" textLength="26.7539" x="582.7305" y="115.748">crud</text><rect fill="#FFFFFF" height="41.9375" rx="2.5" ry="2.5" style="stroke:#000000;stroke-width:1.0;" width="53.334" x="569.4404" y="593.0781"/><text fill="#000000" font-family="Helvetica" font-size="12" lengthAdjust="spacing" textLength="39.334" x="576.4404" y="611.2168">Task 3</text><text fill="#000000" font-family="Helvetica" font-size="12" lengthAdjust="spacing" textLength="26.7539" x="582.7305" y="625.1855">crud</text><rect fill="#FFFFFF" height="41.9375" rx="2.5" ry="2.5" style="stroke:#000000;stroke-width:1.0;" width="53.334" x="662.7744" y="83.6406"/><text fill="#000000" font-family="Helvetica" font-size="12" lengthAdjust="spacing" textLength="39.334" x="669.7744" y="101.7793">Task 4</text><text fill="#000000" font-family="Helvetica" font-size="12" lengthAdjust="spacing" textLength="29.2969" x="674.793" y="115.748">tests</text><rect fill="#FFFFFF" height="41.9375" rx="2.5" ry="2.5" style="stroke:#000000;stroke-width:1.0;" width="53.334" x="662.7744" y="593.0781"/><text fill="#000000" font-family="Helvetica" font-size="12" lengthAdjust="spacing" textLength="39.334" x="669.7744" y="611.2168">Task 4</text><text fill="#000000" font-family="Helvetica" font-size="12" lengthAdjust="spacing" textLength="29.2969" x="674.793" y="625.1855">tests</text><rect fill="#FFFFFF" height="41.9375" rx="2.5" ry="2.5" style="stroke:#000000;stroke-width:1.0;" width="53.334" x="746.1084" y="83.6406"/><text fill="#000000" font-family="Helvetica" font-size="12" lengthAdjust="spacing" textLength="39.334" x="753.1084" y="101.7793">Task 5</text><text fill="#000000" font-family="Helvetica" font-size="12" lengthAdjust="spacing" textLength="27.8086" x="758.8711" y="115.748">docs</text><rect fill="#FFFFFF" height="41.9375" rx="2.5" ry="2.5" style="stroke:#000000;stroke-width:1.0;" width="53.334" x="746.1084" y="593.0781"/><text fill="#000000" font-family="Helvetica" font-size="12" lengthAdjust="spacing" textLength="39.334" x="753.1084" y="611.2168">Task 5</text><text fill="#000000" font-family="Helvetica" font-size="12" lengthAdjust="spacing" textLength="27.8086" x="758.8711" y="625.1855">docs</text><polygon fill="#000000" points="173.9336,152.5469,183.9336,156.5469,173.9336,160.5469,177.9336,156.5469" style="stroke:#000000;stroke-width:1.0;"/><line style="stroke:#000000;stroke-width:1.5;" x1="26.6758" x2="179.9336" y1="156.5469" y2="156.5469"/><text fill="#000000" font-family="Helvetica" font-size="12" lengthAdjust="spacing" textLength="128.3672" x="33.6758" y="151.7168">plan "Build REST API"</text><polygon fill="#000000" points="296.6172,180.5156,306.6172,184.5156,296.6172,188.5156,300.6172,184.5156" style="stroke:#000000;stroke-width:1.0;"/><line style="stroke:#000000;stroke-width:1.5;" x1="185.9336" x2="302.6172" y1="184.5156" y2="184.5156"/><text fill="#000000" font-family="Helvetica" font-size="12" lengthAdjust="spacing" textLength="98.6836" x="192.9336" y="179.6855">decompose goal</text><polygon fill="#000000" points="196.9336,208.4844,186.9336,212.4844,196.9336,216.4844,192.9336,212.4844" style="stroke:#000000;stroke-width:1.0;"/><line style="stroke:#000000;stroke-width:1.5;stroke-dasharray:2.0,2.0;" x1="190.9336" x2="307.6172" y1="212.4844" y2="212.4844"/><text fill="#000000" font-family="Helvetica" font-size="12" lengthAdjust="spacing" textLength="89.5137" x="202.9336" y="207.6543">5 tasks + deps</text><polygon fill="#000000" points="37.6758,236.4531,27.6758,240.4531,37.6758,244.4531,33.6758,240.4531" style="stroke:#000000;stroke-width:1.0;"/><line style="stroke:#000000;stroke-width:1.5;" x1="31.6758" x2="184.9336" y1="240.4531" y2="240.4531"/><text fill="#000000" font-family="Helvetica" font-size="12" lengthAdjust="spacing" textLength="135.2578" x="43.6758" y="235.623">show waves [a]pprove</text><polygon fill="#000000" points="173.9336,264.4219,183.9336,268.4219,173.9336,272.4219,177.9336,268.4219" style="stroke:#000000;stroke-width:1.0;"/><line style="stroke:#000000;stroke-width:1.5;stroke-dasharray:2.0,2.0;" x1="26.6758" x2="179.9336" y1="268.4219" y2="268.4219"/><text fill="#000000" font-family="Helvetica" font-size="12" lengthAdjust="spacing" textLength="49.3477" x="33.6758" y="263.5918">approve</text><polygon fill="#000000" points="407.4395,292.3906,417.4395,296.3906,407.4395,300.3906,411.4395,296.3906" style="stroke:#000000;stroke-width:1.0;"/><line style="stroke:#000000;stroke-width:1.5;" x1="185.9336" x2="413.4395" y1="296.3906" y2="296.3906"/><text fill="#000000" font-family="Helvetica" font-size="12" lengthAdjust="spacing" textLength="41.6484" x="192.9336" y="291.5605">run #1</text><polygon fill="#000000" points="196.9336,320.3594,186.9336,324.3594,196.9336,328.3594,192.9336,324.3594" style="stroke:#000000;stroke-width:1.0;"/><line style="stroke:#000000;stroke-width:1.5;stroke-dasharray:2.0,2.0;" x1="190.9336" x2="418.4395" y1="324.3594" y2="324.3594"/><text fill="#000000" font-family="Helvetica" font-size="12" lengthAdjust="spacing" textLength="94.043" x="202.9336" y="319.5293">&#10003; schema.yaml</text><polygon fill="#000000" points="500.7734,348.3281,510.7734,352.3281,500.7734,356.3281,504.7734,352.3281" style="stroke:#000000;stroke-width:1.0;"/><line style="stroke:#000000;stroke-width:1.5;" x1="185.9336" x2="506.7734" y1="352.3281" y2="352.3281"/><text fill="#000000" font-family="Helvetica" font-size="12" lengthAdjust="spacing" textLength="100.9746" x="192.9336" y="347.498">run #2 (ctx=#1)</text><polygon fill="#000000" points="584.1074,376.2969,594.1074,380.2969,584.1074,384.2969,588.1074,380.2969" style="stroke:#000000;stroke-width:1.0;"/><line style="stroke:#000000;stroke-width:1.5;" x1="185.9336" x2="590.1074" y1="380.2969" y2="380.2969"/><text fill="#000000" font-family="Helvetica" font-size="12" lengthAdjust="spacing" textLength="100.9746" x="192.9336" y="375.4668">run #3 (ctx=#1)</text><polygon fill="#000000" points="196.9336,404.2656,186.9336,408.2656,196.9336,412.2656,192.9336,408.2656" style="stroke:#000000;stroke-width:1.0;"/><line style="stroke:#000000;stroke-width:1.5;stroke-dasharray:2.0,2.0;" x1="190.9336" x2="511.7734" y1="408.2656" y2="408.2656"/><text fill="#000000" font-family="Helvetica" font-size="12" lengthAdjust="spacing" textLength="59.6719" x="202.9336" y="403.4355">&#10003; auth.py</text><polygon fill="#000000" points="196.9336,432.2344,186.9336,436.2344,196.9336,440.2344,192.9336,436.2344" style="stroke:#000000;stroke-width:1.0;"/><line style="stroke:#000000;stroke-width:1.5;stroke-dasharray:2.0,2.0;" x1="190.9336" x2="595.1074" y1="436.2344" y2="436.2344"/><text fill="#000000" font-family="Helvetica" font-size="12" lengthAdjust="spacing" textLength="59.1563" x="202.9336" y="431.4043">&#10003; crud.py</text><polygon fill="#000000" points="677.4414,460.2031,687.4414,464.2031,677.4414,468.2031,681.4414,464.2031" style="stroke:#000000;stroke-width:1.0;"/><line style="stroke:#000000;stroke-width:1.5;" x1="185.9336" x2="683.4414" y1="464.2031" y2="464.2031"/><text fill="#000000" font-family="Helvetica" font-size="12" lengthAdjust="spacing" textLength="122.4785" x="192.9336" y="459.373">run #4 (ctx=#2,#3)</text><polygon fill="#000000" points="760.7754,488.1719,770.7754,492.1719,760.7754,496.1719,764.7754,492.1719" style="stroke:#000000;stroke-width:1.0;"/><line style="stroke:#000000;stroke-width:1.5;" x1="185.9336" x2="766.7754" y1="492.1719" y2="492.1719"/><text fill="#000000" font-family="Helvetica" font-size="12" lengthAdjust="spacing" textLength="122.4785" x="192.9336" y="487.3418">run #5 (ctx=#2,#3)</text><polygon fill="#000000" points="196.9336,516.1406,186.9336,520.1406,196.9336,524.1406,192.9336,520.1406" style="stroke:#000000;stroke-width:1.0;"/><line style="stroke:#000000;stroke-width:1.5;stroke-dasharray:2.0,2.0;" x1="190.9336" x2="688.4414" y1="520.1406" y2="520.1406"/><text fill="#000000" font-family="Helvetica" font-size="12" lengthAdjust="spacing" textLength="74.4551" x="202.9336" y="515.3105">&#10003; tests pass</text><polygon fill="#000000" points="196.9336,544.1094,186.9336,548.1094,196.9336,552.1094,192.9336,548.1094" style="stroke:#000000;stroke-width:1.0;"/><line style="stroke:#000000;stroke-width:1.5;stroke-dasharray:2.0,2.0;" x1="190.9336" x2="771.7754" y1="548.1094" y2="548.1094"/><text fill="#000000" font-family="Helvetica" font-size="12" lengthAdjust="spacing" textLength="55.9746" x="202.9336" y="543.2793">&#10003; API.md</text><polygon fill="#000000" points="37.6758,572.0781,27.6758,576.0781,37.6758,580.0781,33.6758,576.0781" style="stroke:#000000;stroke-width:1.0;"/><line style="stroke:#000000;stroke-width:1.5;stroke-dasharray:2.0,2.0;" x1="31.6758" x2="184.9336" y1="576.0781" y2="576.0781"/><text fill="#000000" font-family="Helvetica" font-size="12" lengthAdjust="spacing" textLength="85.7754" x="43.6758" y="571.248">plan complete</text><!--SRC=[RLBDZjCm4BxxAORqmWgssYIDX2g1j8YDu08LsnK7oi4uiurLnpQnqnzEl0CSURfzafsaIPDMkRN-_YRppGkVOu5W5PUQkOtKbfUyW0mVUQLyQhJ_p0aFFgBQefU21-EiU_aR8Om6eCjvPdPIh-6HAuT317zLg0NUbgNPBNCfDXgTWt2QCEQbLmWBnJLyAKMEpfVScnAU_lo33sXHPwGym3U-HGSxwNDOaATIgE1kZwBoqcZ6kAWr3mvBHf4qjhHSUmWSNpVVgWFW3kf_vtWDQIo10EqRJll2Vfez17KgX05CqflqJPeoW3FrahiDX2ljB8f6x4D60mDf1_e8NjfsvAkZLPhUZ5f5Ayqhdn-jeb5AlDAYhB8Z9Hv9Yo_IKXfyF6ssqfxMxOvUir5EijAP4IqbESMnUjDm_QxPACoRfK7mlf8gWwztzqkuNNoYkwb18dLBdjFz25DOun3MXYlM0TUzKmAUSXsy8gvr9uicRqudPdQmQqxXE_zXRMcssCxIM_3s_IJs8RsMbOP9oEZtWFhq_oyuEhg2Jm-yK0D9r4ceFU7tRoVXLG_67HZt82akZEigf_R0Y7w1r0tMIEyuwnndhMFqUX8F4fCEJyvmqbrODurIaSun4bs0rCgqo5hNVgjDUtKn2ZsoPm00]--></g></svg>