<svg xmlns="http://www.w3.org/2000/svg" xmlns:xlink="http://www.w3.org/1999/xlink" contentStyleType="text/css" height="803px" preserveAspectRatio="none" style="width:990px;height:803px;" version="1.1" viewBox="0 0 990 803" width="990px" zoomAndPan="magnify"><title>Plan Orchestrator &#8212; Dependency Waves with Parallel Execution</title><defs/><g><text fill="#000000" font-family="Helvetica" font-size="22" font-weight="bold" lengthAdjust="spacing" textLength="793.375" x="97.1572" y="35.4209">Plan Orchestrator &#8212; Dependency Waves with Parallel Execution</text><rect fill="#F0F8FF" height="745.3438" style="stroke:#000000;stroke-width:1.0;" width="124.5234" x="377.8789" y="52.6094"/><text fill="#000000" font-family="Helvetica" font-size="12" font-weight="bold" lengthAdjust="spacing" textLength="49.8223" x="415.2295" y="63.748">Wave 1</text><rect fill="#F0FFF0" height="745.3438" style="stroke:#000000;stroke-width:1.0;" width="236.4453" x="514.4023" y="52.6094"/><text fill="#000000" font-family="Helvetica" font-size="12" font-weight="bold" lengthAdjust="spacing" textLength="121.3594" x="571.9453" y="63.748">Wave 2 &#8212; parallel</text><rect fill="#FFF8F0" height="745.3438" style="stroke:#000000;stroke-width:1.0;" width="214.8418" x="762.8477" y="52.6094"/><text fill="#000000" font-family="Helvetica" font-size="12" font-weight="bold" lengthAdjust="spacing" textLength="121.3594" x="809.5889" y="63.748">Wave 3 &#8212; parallel</text><line style="stroke:#000000;stroke-width:1.0;" x1="26" x2="26" y1="126.5781" y2="719.9844"/><line style="stroke:#000000;stroke-width:1.0;" x1="185.7686" x2="185.7686" y1="126.5781" y2="719.9844"/><line style="stroke:#000000;stroke-width:1.0;" x1="308.3555" x2="308.3555" y1="126.5781" y2="719.9844"/><line style="stroke:#000000;stroke-width:1.0;" x1="439.8789" x2="439.8789" y1="126.5781" y2="719.9844"/><line style="stroke:#000000;stroke-width:1.0;" x1="576.4023" x2="576.4023" y1="126.5781" y2="719.9844"/><line style="stroke:#000000;stroke-width:1.0;" x1="694.9258" x2="694.9258" y1="126.5781" y2="719.9844"/><line style="stroke:#000000;stroke-width:1.0;" x1="814.8477" x2="814.8477" y1="126.5781" y2="719.9844"/><line style="stroke:#000000;stroke-width:1.0;" x1="922.8867" x2="922.8867" y1="126.5781" y2="719.9844"/><text fill="#000000" font-family="Helvetica" font-size="12" lengthAdjust="spacing" textLength="27.3516" x="10" y="123.748">User</text><ellipse cx="26.6758" cy="60.6094" fill="#FFFFFF" rx="8" ry="8" style="stroke:#000000;stroke-width:1.0;"/><path d="M26.6758,68.6094 L26.6758,95.6094 M13.6758,76.6094 L39.6758,76.6094 M26.6758,95.6094 L13.6758,110.6094 M26.6758,95.6094 L39.6758,110.6094 " fill="none" style="stroke:#000000;stroke-width:1.0;"/><text fill="#000000" font-family="Helvetica" font-size="12" lengthAdjust="spacing" textLength="27.3516" x="10" y="730.123">User</text><ellipse cx="26.6758" cy="741.9531" fill="#FFFFFF" rx="8" ry="8" style="stroke:#000000;stroke-width:1.0;"/><path d="M26.6758,749.9531 L26.6758,776.9531 M13.6758,757.9531 L39.6758,757.9531 M26.6758,776.9531 L13.6758,791.9531 M26.6758,776.9531 L39.6758,791.9531 " fill="none" style="stroke:#000000;stroke-width:1.0;"/><rect fill="#FFFFFF" height="27.9688" rx="2.5" ry="2.5" style="stroke:#000000;stroke-width:1.0;" width="72.3301" x="149.7686" y="97.6094"/><text fill="#000000" font-family="Helvetica" font-size="12" lengthAdjust="spacing" textLength="58.3301" x="156.7686" y="115.748">sage plan</text><rect fill="#FFFFFF" height="27.9688" rx="2.5" ry="2.5" style="stroke:#000000;stroke-width:1.0;" width="72.3301" x="149.7686" y="718.9844"/><text fill="#000000" font-family="Helvetica" font-size="12" lengthAdjust="spacing" textLength="58.3301" x="156.7686" y="737.123">sage plan</text><rect fill="#FFFFFF" height="41.9375" rx="2.5" ry="2.5" style="stroke:#000000;stroke-width:1.0;" width="96.5234" x="260.3555" y="83.6406"/><text fill="#000000" font-family="Helvetica" font-size="12" lengthAdjust="spacing" textLength="45.832" x="285.7012" y="101.7793">planner</text><text fill="#000000" font-family="Helvetica" font-size="12" lengthAdjust="spacing" textLength="82.5234" x="267.3555" y="115.748">(claude-code)</text><rect fill="#FFFFFF" height="41.9375" rx="2.5" ry="2.5" style="stroke:#000000;stroke-width:1.0;" width="96.5234" x="260.3555" y="718.9844"/><text fill="#000000" font-family="Helvetica" font-size="12" lengthAdjust="spacing" textLength="45.832" x="285.7012" y="737.123">planner</text><text fill="#000000" font-family="Helvetica" font-size="12" lengthAdjust="spacing" textLength="82.5234" x="267.3555" y="751.0918">(claude-code)</text><rect fill="#FFFFFF" height="41.9375" rx="2.5" ry="2.5" style="stroke:#000000;stroke-width:1.0;" width="96.5234" x="391.8789" y="83.6406"/><text fill="#000000" font-family="Helvetica" font-size="12" lengthAdjust="spacing" textLength="66.8438" x="406.7188" y="101.7793">spec-agent</text><text fill="#000000" font-family="Helvetica" font-size="12" lengthAdjust="spacing" textLength="82.5234" x="398.8789" y="115.748">(claude-code)</text><rect fill="#FFFFFF" height="41.9375" rx="2.5" ry="2.5" style="stroke:#000000;stroke-width:1.0;" width="96.5234" x="391.8789" y="718.9844"/><text fill="#000000" font-family="Helvetica" font-size="12" lengthAdjust="spacing" textLength="66.8438" x="406.7188" y="737.123">spec-agent</text><text fill="#000000" font-family="Helvetica" font-size="12" lengthAdjust="spacing" textLength="82.5234" x="398.8789" y="751.0918">(claude-code)</text><rect fill="#FFFFFF" height="41.9375" rx="2.5" ry="2.5" style="stroke:#000000;stroke-width:1.0;" width="96.5234" x="528.4023" y="83.6406"/><text fill="#000000" font-family="Helvetica" font-size="12" lengthAdjust="spacing" textLength="66.2637" x="543.5322" y="101.7793">auth-agent</text><text fill="#000000" font-family="Helvetica" font-size="12" lengthAdjust="spacing" textLength="82.5234" x="535.4023" y="115.748">(claude-code)</text><rect fill="#FFFFFF" height="41.9375" rx="2.5" ry="2.5" style="stroke:#000000;stroke-width:1.0;" width="96.5234" x="528.4023" y="718.9844"/><text fill="#000000" font-family="Helvetica" font-size="12" lengthAdjust="spacing" textLength="66.2637" x="543.5322" y="737.123">auth-agent</text><text fill="#000000" font-family="Helvetica" font-size="12" lengthAdjust="spacing" textLength="82.5234" x="535.4023" y="751.0918">(claude-code)</text><rect fill="#FFFFFF" height="41.9375" rx="2.5" ry="2.5" style="stroke:#000000;stroke-width:1.0;" width="81.9219" x="654.9258" y="83.6406"/><text fill="#000000" font-family="Helvetica" font-size="12" lengthAdjust="spacing" textLength="65.748" x="663.0127" y="101.7793">crud-agent</text><text fill="#000000" font-family="Helvetica" font-size="12" lengthAdjust="spacing" textLength="67.9219" x="661.9258" y="115.748">(gemini-cli)</text><rect fill="#FFFFFF" height="41.9375" rx="2.5" ry="2.5" style="stroke:#000000;stroke-width:1.0;" width="81.9219" x="654.9258" y="718.9844"/><text fill="#000000" font-family="Helvetica" font-size="12" lengthAdjust="spacing" textLength="65.748" x="663.0127" y="737.123">crud-agent</text><text fill="#000000" font-family="Helvetica" font-size="12" lengthAdjust="spacing" textLength="67.9219" x="661.9258" y="751.0918">(gemini-cli)</text><rect fill="#FFFFFF" height="41.9375" rx="2.5" ry="2.5" style="stroke:#000000;stroke-width:1.0;" width="76.0391" x="776.8477" y="83.6406"/><text fill="#000000" font-family="Helvetica" font-size="12" lengthAdjust="spacing" textLength="62.0391" x="783.8477" y="101.7793">test-agent</text><text fill="#000000" font-family="Helvetica" font-size="12" lengthAdjust="spacing" textLength="45.4043" x="792.165" y="115.748">(codex)</text><rect fill="#FFFFFF" height="41.9375" rx="2.5" ry="2.5" style="stroke:#000000;stroke-width:1.0;" width="76.0391" x="776.8477" y="718.9844"/><text fill="#000000" font-family="Helvetica" font-size="12" lengthAdjust="spacing" textLength="62.0391" x="783.8477" y="737.123">test-agent</text><text fill="#000000" font-family="Helvetica" font-size="12" lengthAdjust="spacing" textLength="45.4043" x="792.165" y="751.0918">(codex)</text><rect fill="#FFFFFF" height="41.9375" rx="2.5" ry="2.5" style="stroke:#000000;stroke-width:1.0;" width="80.8027" x="882.8867" y="83.6406"/><text fill="#000000" font-family="Helvetica" font-size="12" lengthAdjust="spacing" textLength="66.8027" x="889.8867" y="101.7793">docs-agent</text><text fill="#000000" font-family="Helvetica" font-size="12" lengthAdjust="spacing" textLength="49.7695" x="898.4033" y="115.748">(ollama)</text><rect fill="#FFFFFF" height="41.9375" rx="2.5" ry="2.5" style="stroke:#000000;stroke-width:1.0;" width="80.8027" x="882.8867" y="718.9844"/><text fill="#000000" font-family="Helvetica" font-size="12" lengthAdjust="spacing" textLength="66.8027" x="889.8867" y="737.123">docs-agent</text><text fill="#000000" font-family="Helvetica" font-size="12" lengthAdjust="spacing" textLength="49.7695" x="898.4033" y="751.0918">(ollama)</text><polygon fill="#000000" points="173.9336,152.5469,183.9336,156.5469,173.9336,160.5469,177.9336,156.5469" style="stroke:#000000;stroke-width:1.0;"/><line style="stroke:#000000;stroke-width:1.5;" x1="26.6758" x2="179.9336" y1="156.5469" y2="156.5469"/><text fill="#000000" font-family="Helvetica" font-size="12" lengthAdjust="spacing" textLength="128.3672" x="33.6758" y="151.7168">plan "Build REST API"</text><polygon fill="#000000" points="296.6172,180.5156,306.6172,184.5156,296.6172,188.5156,300.6172,184.5156" style="stroke:#000000;stroke-width:1.0;"/><line style="stroke:#000000;stroke-width:1.5;" x1="185.9336" x2="302.6172" y1="184.5156" y2="184.5156"/><text fill="#000000" font-family="Helvetica" font-size="12" lengthAdjust="spacing" textLength="98.6836" x="192.9336" y="179.6855">decompose goal</text><polygon fill="#000000" points="196.9336,208.4844,186.9336,212.4844,196.9336,216.4844,192.9336,212.4844" style="stroke:#000000;stroke-width:1.0;"/><line style="stroke:#000000;stroke-width:1.5;stroke-dasharray:2.0,2.0;" x1="190.9336" x2="307.6172" y1="212.4844" y2="212.4844"/><text fill="#000000" font-family="Helvetica" font-size="12" lengthAdjust="spacing" textLength="89.5137" x="202.9336" y="207.6543">5 tasks + deps</text><polygon fill="#000000" points="37.6758,236.4531,27.6758,240.4531,37.6758,244.4531,33.6758,240.4531" style="stroke:#000000;stroke-width:1.0;"/><line style="stroke:#000000;stroke-width:1.5;" x1="31.6758" x2="184.9336" y1="240.4531" y2="240.4531"/><text fill="#000000" font-family="Helvetica" font-size="12" lengthAdjust="spacing" textLength="135.2578" x="43.6758" y="235.623">show waves [a]pprove</text><polygon fill="#000000" points="173.9336,264.4219,183.9336,268.4219,173.9336,272.4219,177.9336,268.4219" style="stroke:#000000;stroke-width:1.0;"/><line style="stroke:#000000;stroke-width:1.5;stroke-dasharray:2.0,2.0;" x1="26.6758" x2="179.9336" y1="268.4219" y2="268.4219"/><text fill="#000000" font-family="Helvetica" font-size="12" lengthAdjust="spacing" textLength="49.3477" x="33.6758" y="263.5918">approve</text><rect fill="#FFFFFF" height="3" style="stroke:#FFFFFF;stroke-width:1.0;" width="978.6895" x="5" y="296.4063"/><line style="stroke:#000000;stroke-width:0.5;" x1="5" x2="983.6895" y1="296.4063" y2="296.4063"/><line style="stroke:#000000;stroke-width:0.5;" x1="5" x2="983.6895" y1="299.4063" y2="299.4063"/><rect fill="#FFFFFF" height="21.9688" style="stroke:#000000;stroke-width:1.0;" width="68" x="460.3447" y="286.4219"/><text fill="#000000" font-family="Helvetica" font-size="12" font-weight="bold" lengthAdjust="spacing" textLength="49.8223" x="466.3447" y="301.5605">Wave 1</text><polygon fill="#000000" points="428.1406,334.3594,438.1406,338.3594,428.1406,342.3594,432.1406,338.3594" style="stroke:#000000;stroke-width:1.0;"/><line style="stroke:#000000;stroke-width:1.5;" x1="185.9336" x2="434.1406" y1="338.3594" y2="338.3594"/><text fill="#000000" font-family="Helvetica" font-size="12" lengthAdjust="spacing" textLength="73.3125" x="192.9336" y="333.5293">run #1 spec</text><polygon fill="#000000" points="196.9336,362.3281,186.9336,366.3281,196.9336,370.3281,192.9336,366.3281" style="stroke:#000000;stroke-width:1.0;"/><line style="stroke:#000000;stroke-width:1.5;stroke-dasharray:2.0,2.0;" x1="190.9336" x2="439.1406" y1="366.3281" y2="366.3281"/><text fill="#000000" font-family="Helvetica" font-size="12" lengthAdjust="spacing" textLength="94.043" x="202.9336" y="361.498">&#10003; schema.yaml</text><rect fill="#FFFFFF" height="3" style="stroke:#FFFFFF;stroke-width:1.0;" width="978.6895" x="5" y="394.3125"/><line style="stroke:#000000;stroke-width:0.5;" x1="5" x2="983.6895" y1="394.3125" y2="394.3125"/><line style="stroke:#000000;stroke-width:0.5;" x1="5" x2="983.6895" y1="397.3125" y2="397.3125"/><rect fill="#FFFFFF" height="21.9688" style="stroke:#000000;stroke-width:1.0;" width="187.8711" x="400.4092" y="384.3281"/><text fill="#000000" font-family="Helvetica" font-size="12" font-weight="bold" lengthAdjust="spacing" textLength="169.6934" x="406.4092" y="399.4668">Wave 2 (parallel fan-out)</text><polygon fill="#000000" points="564.6641,432.2656,574.6641,436.2656,564.6641,440.2656,568.6641,436.2656" style="stroke:#000000;stroke-width:1.0;"/><line style="stroke:#000000;stroke-width:1.5;" x1="185.9336" x2="570.6641" y1="436.2656" y2="436.2656"/><text fill="#000000" font-family="Helvetica" font-size="12" lengthAdjust="spacing" textLength="132.0586" x="192.9336" y="431.4355">run #2 auth (ctx=#1)</text><polygon fill="#000000" points="683.8867,460.2344,693.8867,464.2344,683.8867,468.2344,687.8867,464.2344" style="stroke:#000000;stroke-width:1.0;"/><line style="stroke:#000000;stroke-width:1.5;" x1="185.9336" x2="689.8867" y1="464.2344" y2="464.2344"/><text fill="#000000" font-family="Helvetica" font-size="12" lengthAdjust="spacing" textLength="131.543" x="192.9336" y="459.4043">run #3 crud (ctx=#1)</text><polygon fill="#000000" points="196.9336,488.2031,186.9336,492.2031,196.9336,496.2031,192.9336,492.2031" style="stroke:#000000;stroke-width:1.0;"/><line style="stroke:#000000;stroke-width:1.5;stroke-dasharray:2.0,2.0;" x1="190.9336" x2="575.6641" y1="492.2031" y2="492.2031"/><text fill="#000000" font-family="Helvetica" font-size="12" lengthAdjust="spacing" textLength="59.6719" x="202.9336" y="487.373">&#10003; auth.py</text><polygon fill="#000000" points="196.9336,516.1719,186.9336,520.1719,196.9336,524.1719,192.9336,520.1719" style="stroke:#000000;stroke-width:1.0;"/><line style="stroke:#000000;stroke-width:1.5;stroke-dasharray:2.0,2.0;" x1="190.9336" x2="694.8867" y1="520.1719" y2="520.1719"/><text fill="#000000" font-family="Helvetica" font-size="12" lengthAdjust="spacing" textLength="59.1563" x="202.9336" y="515.3418">&#10003; crud.py</text><rect fill="#FFFFFF" height="3" style="stroke:#FFFFFF;stroke-width:1.0;" width="978.6895" x="5" y="548.1563"/><line style="stroke:#000000;stroke-width:0.5;" x1="5" x2="983.6895" y1="548.1563" y2="548.1563"/><line style="stroke:#000000;stroke-width:0.5;" x1="5" x2="983.6895" y1="551.1563" y2="551.1563"/><rect fill="#FFFFFF" height="21.9688" style="stroke:#000000;stroke-width:1.0;" width="187.8711" x="400.4092" y="538.1719"/><text fill="#000000" font-family="Helvetica" font-size="12" font-weight="bold" lengthAdjust="spacing" textLength="169.6934" x="406.4092" y="553.3105">Wave 3 (parallel fan-out)</text><polygon fill="#000000" points="802.8672,586.1094,812.8672,590.1094,802.8672,594.1094,806.8672,590.1094" style="stroke:#000000;stroke-width:1.0;"/><line style="stroke:#000000;stroke-width:1.5;" x1="185.9336" x2="808.8672" y1="590.1094" y2="590.1094"/><text fill="#000000" font-family="Helvetica" font-size="12" lengthAdjust="spacing" textLength="155.5898" x="192.9336" y="585.2793">run #4 tests (ctx=#2,#3)</text><polygon fill="#000000" points="911.2881,614.0781,921.2881,618.0781,911.2881,622.0781,915.2881,618.0781" style="stroke:#000000;stroke-width:1.0;"/><line style="stroke:#000000;stroke-width:1.5;" x1="185.9336" x2="917.2881" y1="618.0781" y2="618.0781"/><text fill="#000000" font-family="Helvetica" font-size="12" lengthAdjust="spacing" textLength="157.916" x="192.9336" y="613.248">run #5 docs  (ctx=#2,#3)</text><polygon fill="#000000" points="196.9336,642.0469,186.9336,646.0469,196.9336,650.0469,192.9336,646.0469" style="stroke:#000000;stroke-width:1.0;"/><line style="stroke:#000000;stroke-width:1.5;stroke-dasharray:2.0,2.0;" x1="190.9336" x2="813.8672" y1="646.0469" y2="646.0469"/><text fill="#000000" font-family="Helvetica" font-size="12" lengthAdjust="spacing" textLength="106.0488" x="202.9336" y="641.2168">&#10003; pytest: 24 pass</text><polygon fill="#000000" points="196.9336,670.0156,186.9336,674.0156,196.9336,678.0156,192.9336,674.0156" style="stroke:#000000;stroke-width:1.0;"/><line style="stroke:#000000;stroke-width:1.5;stroke-dasharray:2.0,2.0;" x1="190.9336" x2="922.2881" y1="674.0156" y2="674.0156"/><text fill="#000000" font-family="Helvetica" font-size="12" lengthAdjust="spacing" textLength="55.9746" x="202.9336" y="669.1855">&#10003; API.md</text><polygon fill="#000000" points="37.6758,697.9844,27.6758,701.9844,37.6758,705.9844,33.6758,701.9844" style="stroke:#000000;stroke-width:1.0;"/><line style="stroke:#000000;stroke-width:1.5;stroke-dasharray:2.0,2.0;" x1="31.6758" x2="184.9336" y1="701.9844" y2="701.9844"/><text fill="#000000" font-family="Helvetica" font-size="12" lengthAdjust="spacing" textLength="85.7754" x="43.6758" y="697.1543">plan complete</text><!--SRC=[XPFDZjCm58NtVefBkka8MatILaALYZJ0HB21YXd40bZSSUwqLXqxn4v_PiKxm9AdcoV1TjCcpLJGLPjpxdUFuzDdTaavGI5HA6PMGXLOOWuPtMCbRQgL_O1EZzwHN9CL7AFphXlnG10dBT4iCTCReHPmZz9GIxb3lbgKkbBP6orr2RP4PPn4ohRdwKT5YjDLMUhDxLBmbI9Z81vE6BF2IeAvH0KVIxuaun3MaHv__eQtL93AtEGElk2Q36o4NSBSCQKa2TTRufKLMZ66tCzyDbGojz8TJXIeB4G65-6Dg0ZGWFzrgdj9KVbDzRd4AgC1rnbT17CjCNQdjn3v_H17q4ilqvTfoW1EznJ41uwkx3cKZPax1pXG2vQ48nRrOVRaDBtiah6oot-GawwVbrLsz2ye5qeCk1JE7loZCqb6JvAaxenFabXtDqqI5s7heU7ZoUEkFzFS7FrQIipnCE3zasCIvk_DFnwy2bValqx3-uVeTILa1f-kRsxXQlxUDRRMdRM-86VDYEkyq8PWeL6oWp1eU5EOW4MpCl3SkGlJvXosJrtFzGOseMbVyNjHb7fDJRWs3MkHpMQmhmRCPdkeizaucCfAGIy6tmqM7XqHKtZyymkCgtkEmntciW4bq3_SXFktgO6kxCK9EsdO2VXsG9_RxQmNNpIUKUCPWMz4umdpdI2UCYnsBCnrD3_jjMF0qVy2ZflbO_2bCVNsv4Llr0evQNmJy6M14r_WTC8KEy-RGZ9sLJE61KR7useop3DMxpdSRzqdtnD9bjXV]--></g></svg>